<?xml version="1.0" encoding="UTF-8" standalone="no"?>
<!DOCTYPE svg PUBLIC "-//W3C//DTD SVG 20010904//EN" "http://www.w3.org/TR/2001/REC-SVG-20010904/DTD/svg10.dtd">
<svg version="1.0" xmlns="http://www.w3.org/2000/svg" width="3300.000000pt" height="3300.000000pt" viewBox="0 0 3300.000000 3300.000000" preserveAspectRatio="xMidYMid meet">
<metadata>
Created by potrace 1.11, written by Peter Selinger 2001-2013
</metadata>
<g transform="translate(0.000000,3300.000000) scale(0.100000,-0.100000)" fill="#000000" stroke="none">
<path d="M0 16500 l0 -16500 16500 0 16500 0 0 16500 0 16500 -16500 0 -16500 0 0 -16500z m19911 10588 c1871 -1888 3580 -3612 3798 -3830 l396 -398 -2325 0 -2325 0 -1473 1505 c-811 828 -1477 1505 -1481 1505 -5 0 -2111 -2104 -4681 -4676 l-4672 -4676 23 -24 c13 -12 546 -500 1184 -1083 l1160 -1060 3240 -1 3240 0 845 905 845 905 2371 0 c1304 0 2374 -3 2378 -7 4 -4 -1137 -1151 -2536 -2550 l-2543 -2543 -4747 0 -4748 0 -2690 2737 c-1480 1506 -2689 2744 -2688 2751 4 17 14000 13970 14015 13971 7 1 1543 -1544 3414 -3431z m7859 -7921 c1598 -1555 2746 -2680 2748 -2692 3 -22 -714 -740 -9222 -9231 -3951 -3944 -4773 -4759 -4795 -4759 -22 0 -708 670 -3913 3825 -2138 2103 -3884 3828 -3882 3832 3 4 1098 8 2433 8 l2429 0 1462 -1520 c805 -836 1467 -1520 1471 -1520 4 0 2091 2086 4637 4636 l4630 4636 -112 108 c-61 59 -568 547 -1126 1084 l-1015 976 -3241 0 -3241 0 -959 -927 -960 -927 -2274 3 c-1356 1 -2279 6 -2284 12 -6 5 969 989 2540 2561 1402 1404 2554 2556 2559 2560 6 4 2116 8 4690 7 l4680 0 2745 -2672z"/>
</g>
</svg>